<?xml version="1.0" encoding="UTF-8"?>
<!DOCTYPE svg PUBLIC "-//W3C//DTD SVG 1.1//EN" "http://www.w3.org/Graphics/SVG/1.1/DTD/svg11.dtd">
<!-- Creator: CorelDRAW -->
<svg xmlns="http://www.w3.org/2000/svg" xml:space="preserve" width="6.82666in" height="6.82666in" style="shape-rendering:geometricPrecision; text-rendering:geometricPrecision; image-rendering:optimizeQuality; fill-rule:evenodd; clip-rule:evenodd"
viewBox="0 0 6.82666 6.82666"
 xmlns:xlink="http://www.w3.org/1999/xlink"
 version="1.1">
 <defs>
  <style type="text/css">
   <![CDATA[
    .fil16 {fill:none}
    .fil14 {fill:#2C9A47}
    .fil1 {fill:#2E2D2C}
    .fil9 {fill:#39B54A}
    .fil10 {fill:#3DB54A}
    .fil0 {fill:#424143}
    .fil3 {fill:#595A5C}
    .fil13 {fill:#736759}
    .fil6 {fill:#92AEB7}
    .fil12 {fill:#9B8579}
    .fil5 {fill:#BCC8CE}
    .fil7 {fill:#BE1E2D}
    .fil4 {fill:#D3DADE}
    .fil2 {fill:#DDE2E4}
    .fil15 {fill:#F8B53C}
    .fil11 {fill:#FFCA61}
    .fil8 {fill:#FFDE17}
   ]]>
  </style>
 </defs>
 <g id="Layer_x0020_1">
  <metadata id="CorelCorpID_0Corel-Layer"/>
  <g id="_625062000">
   <g id="Guides">
   </g>
   <g id="Layer_2">
   </g>
   <g id="Layer_3">
   </g>
   <g id="Layer_4">
   </g>
   <g id="Layer_5">
   </g>
   <g id="Layer_6">
   </g>
   <g id="Layer_7">
   </g>
   <g id="Layer_8">
   </g>
   <g id="Layer_9">
   </g>
   <g id="Layer_10">
   </g>
   <g id="Layer_11">
   </g>
   <g id="Layer_12">
   </g>
   <g id="Layer_13">
   </g>
   <g id="Layer_14">
   </g>
   <g id="Layer_15">
   </g>
   <g id="Layer_16">
   </g>
   <g id="Layer_17">
   </g>
   <g id="Layer_18">
   </g>
   <g id="Layer_19">
   </g>
   <g id="Layer_20">
   </g>
   <g id="Layer_21">
   </g>
   <g id="Layer_22">
   </g>
   <g id="Layer_23">
   </g>
   <g id="Layer_24">
   </g>
   <g id="Layer_25">
   </g>
   <g id="Layer_26">
    <g>
     <g>
      <g>
       <rect id="_625065888" class="fil0" x="3.3254" y="4.52196" width="0.175866" height="0.899067"/>
      </g>
      <g>
       <rect id="_625065192" class="fil1" x="3.41333" y="4.52196" width="0.0879331" height="0.899067"/>
      </g>
      <g>
       <g>
        <rect id="_625065048" class="fil2" x="0.989331" y="1.30973" width="4.84803" height="3.13323"/>
       </g>
       <g>
        <path id="_625065648" class="fil3" d="M5.91733 4.523l-5.008 0 0 -3.29326 5.008 0 0 3.29326zm-4.848 -0.16l4.688 0 0 -2.97326 -4.688 0 0 2.97326z"/>
       </g>
      </g>
      <g>
       <rect id="_625065456" class="fil4" x="3.41333" y="1.38973" width="2.35217" height="2.97323"/>
      </g>
      <g>
       <polygon id="_625065360" class="fil0" points="5.91733,4.523 3.41333,4.523 3.41333,4.363 5.75733,4.363 5.75733,1.38973 3.41333,1.38973 3.41333,1.22973 5.91733,1.22973 "/>
      </g>
      <g>
       <rect id="_625064808" class="fil0" x="2.71296" y="5.42106" width="1.40073" height="0.175866"/>
      </g>
      <g>
       <rect id="_625064232" class="fil1" x="3.41333" y="5.42106" width="0.700366" height="0.175866"/>
      </g>
     </g>
     <g>
      <rect id="_625064736" class="fil5" x="1.2288" y="1.84757" width="4.3724" height="2.3579"/>
     </g>
     <g>
      <g>
       <rect id="_625064376" class="fil6" x="1.2288" y="1.55347" width="4.3724" height="0.294098"/>
      </g>
      <g>
       <g>
        <path id="_625064784" class="fil7" d="M1.47243 1.74667l-0.0635 0c-0.0255,0 -0.0461654,-0.0206654 -0.0461654,-0.0461654l0 0c0,-0.0255 0.0206654,-0.0461654 0.0461654,-0.0461654l0.0635 -3.93701e-006c0.0255,0 0.0461654,0.0206654 0.0461654,0.0461654l0 0c0,0.0255039 -0.0206654,0.0461693 -0.0461654,0.0461693z"/>
       </g>
       <g>
        <path id="_625063944" class="fil8" d="M1.71773 1.74667l-0.0635 0c-0.0255,0 -0.0461654,-0.0206654 -0.0461654,-0.0461654l0 0c0,-0.0255 0.0206654,-0.0461654 0.0461654,-0.0461654l0.0635 -3.93701e-006c0.0255,0 0.0461654,0.0206654 0.0461654,0.0461654l0 0c0,0.0255039 -0.0206654,0.0461693 -0.0461654,0.0461693z"/>
       </g>
       <g>
        <path id="_625063992" class="fil9" d="M1.96303 1.74667l-0.0635 0c-0.0255,0 -0.0461654,-0.0206654 -0.0461654,-0.0461654l0 0c0,-0.0255 0.0206654,-0.0461654 0.0461654,-0.0461654l0.0635 -3.93701e-006c0.0255,0 0.0461654,0.0206654 0.0461654,0.0461654l0 0c0,0.0255039 -0.0206654,0.0461693 -0.0461654,0.0461693z"/>
       </g>
      </g>
     </g>
     <g>
      <g>
       <g>
        <rect id="_625063536" class="fil10" x="3.88137" y="2.46827" width="0.178335" height="1.23907"/>
       </g>
       <g>
        <rect id="_625063872" class="fil11" x="3.11326" y="3.01123" width="0.178335" height="0.699598"/>
       </g>
       <g>
        <rect id="_625063416" class="fil10" x="3.49723" y="2.76496" width="0.178335" height="0.942366"/>
       </g>
       <g>
        <rect id="_625063704" class="fil11" x="2.72913" y="3.3054" width="0.178335" height="0.401965"/>
       </g>
      </g>
      <g>
       <g>
        <polygon id="_625063176" class="fil12" points="2.64306,2.1443 2.64306,3.79843 4.2972,3.79843 4.2972,3.9087 2.58793,3.9087 2.5328,3.9087 2.5328,3.85356 2.5328,2.1443 "/>
       </g>
      </g>
      <g>
       <g>
        <polygon id="_625062912" class="fil13" points="4.2972,3.79843 2.64306,3.79843 2.58793,3.85356 2.5328,3.9087 2.58793,3.9087 4.2972,3.9087 "/>
       </g>
      </g>
      <g>
       <rect id="_625062864" class="fil14" x="3.97053" y="2.46827" width="0.0891654" height="1.23907"/>
      </g>
      <g>
       <rect id="_625062816" class="fil15" x="3.20243" y="3.01123" width="0.0891654" height="0.699598"/>
      </g>
      <g>
       <rect id="_625062960" class="fil14" x="3.5864" y="2.76496" width="0.0891654" height="0.942366"/>
      </g>
      <g>
       <rect id="_625062144" class="fil15" x="2.8183" y="3.3054" width="0.0891654" height="0.401965"/>
      </g>
     </g>
    </g>
   </g>
  </g>
 </g>
 <rect class="fil16" width="6.82666" height="6.82666"/>
</svg>
